<?xml version="1.0" encoding="utf-8"?>
<!-- Generator: Adobe Illustrator 27.3.1, SVG Export Plug-In . SVG Version: 6.00 Build 0)  -->
<svg version="1.1" id="Layer_1" xmlns="http://www.w3.org/2000/svg" xmlns:xlink="http://www.w3.org/1999/xlink" x="0px" y="0px"
	 viewBox="0 0 32 32" style="enable-background:new 0 0 32 32;" xml:space="preserve">
<style type="text/css">
	.st0{fill:url(#SVGID_1_);}
	.st1{fill:url(#SVGID_00000157270573309684295410000000813889217449309075_);}
</style>
<g>
	<linearGradient id="SVGID_1_" gradientUnits="userSpaceOnUse" x1="1.2812" y1="18.4408" x2="27.3455" y2="22.232">
		<stop  offset="0" style="stop-color:#295EE2"/>
		<stop  offset="1" style="stop-color:#29C2FF"/>
	</linearGradient>
	<path class="st0" d="M25.87,12c0,2.17,0,4.11,0,6.23c-4.88,0-9.72,0-14.59,0c0.56,3.38,3.71,6.33,7.21,6.8
		c1.28,0.17,2.58,0.21,3.88,0.29c1.08,0.06,1.85,0.24,2.8,1.16c1.32,1.28,1.37,2.68,1.84,4.43c-1.46,0-2.77-0.01-4.09,0
		c-2.78,0.02-5.6,0.31-8.23-0.85c-0.89-0.39-1.81-0.99-2.42-1.73c-3.57-4.31-3.94-10.71-0.96-15.49c0.22-0.35,0.65-0.79,0.98-0.79
		C16.78,11.98,21.27,12,25.87,12z"/>
	
		<linearGradient id="SVGID_00000153673781537455428160000000676931272873822892_" gradientUnits="userSpaceOnUse" x1="2.5534" y1="9.6947" x2="28.6176" y2="13.4859">
		<stop  offset="0" style="stop-color:#295EE2"/>
		<stop  offset="1" style="stop-color:#29C2FF"/>
	</linearGradient>
	<path style="fill:url(#SVGID_00000153673781537455428160000000676931272873822892_);" d="M27,1.05c-0.21,1.61-0.42,2.98-0.55,4.36
		c-0.07,0.77-0.39,1.01-1.14,1c-1.81-0.01-3.63-0.08-5.41,0.13C12.12,7.46,6.65,13.69,6.65,21.52c0,0.27,0,0.54,0,0.82
		c-0.13,0.03-0.25,0.07-0.38,0.1c-0.39-1.47-0.93-2.91-1.13-4.4C3.89,9.07,10.81,1.13,19.85,1.05C22.21,1.04,24.56,1.05,27,1.05z"/>
</g>
</svg>
